<svg width="627" height="627" viewBox="0 0 627 627" fill="none" xmlns="http://www.w3.org/2000/svg">
<path d="M607.91 396.518H402.426V277.583H607.91V396.518ZM403.68 395.264H606.656V278.837H403.68V395.264Z" fill="#E0E0E0"/>
<path d="M565.525 340.998H429.923V344.975H565.525V340.998Z" fill="#F0F0F0"/>
<path d="M574.863 355.822H429.923V360.162H574.863V355.822Z" fill="#F0F0F0"/>
<path d="M574.863 370.82H429.923V375.16H574.863V370.82Z" fill="#F0F0F0"/>
<path d="M477.315 319.468H429.923V329.787H477.315V319.468Z" fill="#F0F0F0"/>
<path d="M607.283 278.208H403.053V297.143H607.283V278.208Z" fill="#E0E0E0"/>
<path d="M591.568 294.314C591.307 294.064 593.939 290.89 597.444 287.225C600.952 283.558 604.005 280.789 604.266 281.039C604.527 281.288 601.895 284.462 598.387 288.128C594.882 291.793 591.829 294.563 591.568 294.314Z" fill="white"/>
<path d="M604.267 294.314C604.007 294.563 600.953 291.793 597.447 288.128C593.938 284.461 591.307 281.287 591.568 281.039C591.829 280.791 594.881 283.558 598.389 287.225C601.896 290.89 604.528 294.064 604.267 294.314Z" fill="white"/>
<path d="M355.026 42.7036H150.794V160.385H355.026V42.7036Z" fill="#E6E6E6"/>
<path d="M313.265 105.493H177.665V109.47H313.265V105.493Z" fill="#F0F0F0"/>
<path d="M322.605 120.317H177.665V124.656H322.605V120.317Z" fill="#F0F0F0"/>
<path d="M322.605 135.314H177.665V139.653H322.605V135.314Z" fill="#F0F0F0"/>
<path d="M225.056 83.9626H177.665V94.2818H225.056V83.9626Z" fill="#F0F0F0"/>
<path d="M355.026 42.7036H150.794V61.6365H355.026V42.7036Z" fill="#E0E0E0"/>
<path d="M338.61 58.7183C338.349 58.4688 340.981 55.2949 344.486 51.6295C347.993 47.9628 351.047 45.1939 351.308 45.4422C351.568 45.6918 348.936 48.8644 345.429 52.5311C341.925 56.1965 338.87 58.9666 338.61 58.7183Z" fill="white"/>
<path d="M351.309 58.718C351.048 58.9675 347.994 56.1974 344.488 52.532C340.98 48.8653 338.35 45.6914 338.609 45.4431C338.87 45.1936 341.924 47.9637 345.43 51.6303C348.939 55.2945 351.57 58.4684 351.309 58.718Z" fill="white"/>
<path d="M277.675 261.321H72.1904V142.385H277.675V261.321ZM73.4444 260.067H276.421V143.639H73.4444V260.067Z" fill="#E0E0E0"/>
<path d="M235.289 205.8H99.687V209.778H235.289V205.8Z" fill="#F0F0F0"/>
<path d="M244.628 220.626H99.687V224.965H244.628V220.626Z" fill="#F0F0F0"/>
<path d="M244.628 235.623H99.687V239.961H244.628V235.623Z" fill="#F0F0F0"/>
<path d="M147.078 184.27H99.687V194.59H147.078V184.27Z" fill="#F0F0F0"/>
<path d="M277.048 143.012H72.8174V161.946H277.048V143.012Z" fill="#E0E0E0"/>
<path d="M514.822 288.575H273.672V504.459H514.822V288.575Z" fill="#E6E6E6"/>
<path d="M285.794 220.568H96.894V416.831H285.794V220.568Z" fill="#F0F0F0"/>
<path d="M285.794 220.568H96.894V241.953H285.794V220.568Z" fill="#E0E0E0"/>
<path d="M90.0637 231.042C90.0637 233.332 88.288 235.188 86.0973 235.188C83.9065 235.188 82.1309 233.332 82.1309 231.042C82.1309 228.752 83.9065 226.896 86.0973 226.896C88.288 226.896 90.0637 228.752 90.0637 231.042Z" fill="white"/>
<path d="M128.58 231.042C128.58 233.332 126.804 235.187 124.613 235.187C122.423 235.187 120.647 233.332 120.647 231.042C120.647 228.752 122.423 226.896 124.613 226.896C126.804 226.896 128.58 228.752 128.58 231.042Z" fill="white"/>
<path d="M144.668 231.042C144.668 233.332 142.892 235.187 140.701 235.187C138.511 235.187 136.735 233.332 136.735 231.042C136.735 228.752 138.511 226.896 140.701 226.896C142.892 226.896 144.668 228.752 144.668 231.042Z" fill="white"/>
<path d="M580.944 85.6294H339.794V325.972H580.944V85.6294Z" fill="#F0F0F0"/>
<path d="M580.944 85.6294H339.794V113.782H580.944V85.6294Z" fill="#E0E0E0"/>
<path d="M360.331 99.4159C360.331 102.431 357.994 104.875 355.11 104.875C352.227 104.875 349.889 102.431 349.889 99.4159C349.889 96.4013 352.227 93.9585 355.11 93.9585C357.993 93.9585 360.331 96.4025 360.331 99.4159Z" fill="white"/>
<path d="M379.981 95.7253C382.112 97.8571 382.187 101.238 380.148 103.276C378.109 105.315 374.728 105.239 372.598 103.109C370.467 100.977 370.391 97.5963 372.43 95.5573C374.467 93.5183 377.848 93.5935 379.981 95.7253Z" fill="white"/>
<path d="M402.689 99.4159C402.689 102.431 400.352 104.875 397.467 104.875C394.583 104.875 392.247 102.431 392.247 99.4159C392.247 96.4013 394.583 93.9585 397.467 93.9585C400.352 93.9585 402.689 96.4025 402.689 99.4159Z" fill="white"/>
<path d="M528.849 568.226C528.849 568.406 441.772 568.554 334.382 568.554C226.955 568.554 139.896 568.407 139.896 568.226C139.896 568.046 226.954 567.899 334.382 567.899C441.772 567.9 528.849 568.047 528.849 568.226Z" fill="#263238"/>
<path d="M443.999 414.713C424.627 401.179 420.232 376.057 420.998 353.475C421.126 349.706 420.711 345.732 422.504 342.424C424.299 339.117 428.482 336.857 431.857 338.445C434.656 339.763 435.876 343.018 437.442 345.712C439.525 349.294 442.63 352.26 446.283 354.155C448.683 355.4 451.652 356.162 454.022 354.856C457.274 353.061 457.656 348.57 457.634 344.82C457.59 337.833 457.547 330.844 457.503 323.858C457.48 320.11 457.47 316.282 458.635 312.724C459.801 309.166 462.376 305.861 465.943 304.861C469.511 303.863 473.92 305.918 474.673 309.589C474.987 311.116 474.676 312.701 474.78 314.258C474.884 315.814 475.609 317.536 477.087 317.969C478.583 318.41 480.084 317.346 481.204 316.249C485.074 312.464 487.7 307.588 490.154 302.738C492.608 297.889 494.989 292.925 498.501 288.795C502.012 284.666 506.869 281.395 512.237 281.091C517.607 280.787 523.327 284.1 524.684 289.372C526.045 294.658 522.961 300.02 519.605 304.298C514.627 310.646 508.738 316.26 502.181 320.908C501 321.746 499.718 322.653 499.267 324.041C498.453 326.54 500.82 329.023 503.288 329.845C506.082 330.775 509.114 330.486 512.038 330.829C514.961 331.173 518.128 332.463 519.233 335.226C520.769 339.058 517.564 343.074 514.41 345.704C508.096 350.972 500.886 355.134 493.194 357.952C490.436 358.961 487.533 359.847 485.31 361.784C483.086 363.723 481.743 367.091 483.088 369.732C484.432 372.375 487.88 373.221 490.77 372.684C493.658 372.148 496.243 370.58 498.997 369.541C504.149 367.596 510.802 367.951 514.103 372.404C516.271 375.331 516.463 379.407 515.366 382.895C514.27 386.384 512.045 389.39 509.683 392.161C501.425 401.849 490.854 409.648 478.902 413.793C466.951 417.936 455.877 419.057 443.999 414.713Z" fill="#830056"/>
<path d="M519.268 284.229C519.277 284.238 519.153 284.36 518.905 284.586C518.627 284.833 518.259 285.161 517.791 285.579C516.809 286.446 515.361 287.727 513.541 289.426C509.898 292.813 504.781 297.909 499.222 304.882C496.432 308.356 493.534 312.29 490.498 316.57C487.469 320.858 484.262 325.458 481.071 330.422C477.881 335.383 474.687 340.7 471.822 346.444C470.377 349.31 469.088 352.309 467.773 355.366C466.465 358.424 465.138 361.525 463.795 364.663C458.468 377.235 453.783 389.389 450.435 400.741C447.068 412.084 445.064 422.596 444.187 431.503C443.288 440.414 443.473 447.687 443.836 452.678C444.032 455.173 444.224 457.111 444.399 458.418C444.472 459.045 444.528 459.537 444.572 459.909C444.607 460.245 444.62 460.419 444.609 460.421C444.596 460.423 444.561 460.253 444.502 459.92C444.443 459.552 444.363 459.061 444.261 458.438C444.041 457.135 443.806 455.2 443.568 452.701C443.123 447.706 442.862 440.406 443.702 431.457C444.52 422.511 446.482 411.946 449.828 400.558C453.151 389.162 457.831 376.971 463.163 364.39C464.507 361.25 465.837 358.146 467.146 355.089C468.46 352.039 469.763 349.015 471.22 346.136C474.11 340.362 477.328 335.033 480.542 330.071C483.754 325.104 486.984 320.508 490.034 316.233C493.095 311.962 496.023 308.035 498.844 304.571C504.467 297.616 509.658 292.555 513.362 289.227C515.212 287.555 516.688 286.306 517.701 285.472C518.189 285.077 518.57 284.766 518.858 284.532C519.122 284.322 519.261 284.219 519.268 284.229Z" fill="#263238"/>
<path d="M471.417 346.108C471.37 346.116 471.242 345.546 471.051 344.509C470.854 343.473 470.618 341.966 470.355 340.098C469.824 336.364 469.269 331.185 468.677 325.472C468.085 319.755 467.457 314.599 466.872 310.884C466.585 309.027 466.337 307.525 466.152 306.489C465.973 305.452 465.897 304.873 465.943 304.861C465.989 304.851 466.155 305.411 466.414 306.433C466.68 307.453 467.003 308.946 467.351 310.799C468.062 314.506 468.771 319.675 469.361 325.397C469.931 331.036 470.445 336.137 470.839 340.036C471.027 341.796 471.187 343.279 471.316 344.469C471.425 345.517 471.466 346.102 471.417 346.108Z" fill="#263238"/>
<path d="M519.618 337.1C519.619 337.148 518.933 337.228 517.696 337.331C516.459 337.442 514.669 337.591 512.463 337.847C508.047 338.323 501.973 339.195 495.312 340.45C488.652 341.718 482.673 343.121 478.378 344.261C476.225 344.815 474.495 345.312 473.298 345.648C472.101 345.988 471.433 346.154 471.417 346.109C471.402 346.063 472.044 345.809 473.218 345.388C474.394 344.973 476.107 344.404 478.249 343.786C482.522 342.52 488.505 341.037 495.185 339.764C501.865 338.506 507.975 337.707 512.415 337.356C514.635 337.163 516.435 337.087 517.681 337.062C518.927 337.04 519.616 337.052 519.618 337.1Z" fill="#263238"/>
<path d="M450.421 399.67C450.398 399.68 450.287 399.478 450.09 399.082C449.867 398.61 449.595 398.035 449.266 397.338C448.558 395.82 447.588 393.598 446.427 390.836C444.102 385.314 441.129 377.586 437.965 369.014C434.799 360.437 431.902 352.691 429.695 347.13C428.614 344.426 427.724 342.202 427.061 340.549C426.778 339.832 426.546 339.24 426.354 338.753C426.2 338.341 426.128 338.119 426.151 338.107C426.174 338.099 426.285 338.301 426.482 338.697C426.705 339.168 426.977 339.743 427.306 340.44C428.014 341.957 428.984 344.179 430.145 346.942C432.471 352.463 435.443 360.192 438.608 368.768C441.773 377.341 444.67 385.086 446.877 390.649C447.959 393.351 448.848 395.577 449.511 397.229C449.794 397.946 450.026 398.539 450.218 399.024C450.372 399.439 450.444 399.66 450.421 399.67Z" fill="#263238"/>
<path d="M514.473 379.027C514.479 379.051 514.26 379.14 513.837 379.289C513.337 379.457 512.721 379.663 511.977 379.912C510.259 380.469 507.939 381.221 505.118 382.134C499.327 384.013 491.358 386.699 482.557 389.678C473.753 392.66 465.752 395.275 459.92 397.033C457.004 397.913 454.638 398.602 452.994 399.043C452.234 399.243 451.607 399.407 451.097 399.542C450.66 399.649 450.428 399.693 450.422 399.67C450.416 399.648 450.635 399.557 451.058 399.407C451.557 399.24 452.173 399.034 452.917 398.785C454.635 398.228 456.954 397.477 459.776 396.561C465.567 394.684 473.537 391.997 482.34 389.016C491.142 386.035 499.141 383.421 504.974 381.663C507.889 380.782 510.255 380.094 511.901 379.651C512.661 379.452 513.286 379.286 513.798 379.153C514.233 379.048 514.465 379.004 514.473 379.027Z" fill="#263238"/>
<path d="M488.343 74.8374L481.882 77.1485L479.119 68.7103C474.023 53.1457 457.758 44.8179 442.882 50.1398C427.997 55.4643 420.039 72.4573 425.135 88.0219L427.898 96.4601L421.415 98.7787C416.374 100.582 413.645 106.393 415.372 111.669L433.349 166.583C435.102 171.938 440.669 174.794 445.71 172.99L512.641 149.048C517.764 147.216 520.495 141.391 518.74 136.036L500.763 81.1224C499.034 75.8468 493.465 73.004 488.343 74.8374ZM437.329 83.658C434.537 75.1283 438.896 65.8136 447.057 62.8943C455.21 59.9775 464.119 64.5458 466.911 73.0755L469.674 81.5149L440.092 92.0962L437.329 83.658ZM474.961 132.38L479.552 146.403C479.745 146.996 479.406 147.602 478.833 147.808L472.41 150.105C471.918 150.281 471.289 150.021 471.096 149.428L466.505 135.404C461.53 135.194 456.913 131.897 455.185 126.621C452.965 119.838 456.438 112.422 462.947 110.094C469.453 107.766 476.543 111.403 478.764 118.187C480.491 123.462 478.774 129.026 474.961 132.38Z" fill="#830056"/>
<path d="M481.599 76.9969C481.661 77.1661 469.624 81.673 454.716 87.0602C439.805 92.4499 427.671 96.6809 427.61 96.5116C427.548 96.3423 439.583 91.8367 454.495 86.447C469.4 81.0598 481.538 76.8276 481.599 76.9969Z" fill="#263238"/>
<path d="M495.812 79.308C495.824 79.3042 495.873 79.4158 495.957 79.6365C496.052 79.8923 496.172 80.2159 496.321 80.6196C496.644 81.5338 497.091 82.8054 497.661 84.4205C498.813 87.7775 500.453 92.554 502.472 98.4377C504.485 104.378 506.876 111.428 509.529 119.254C510.839 123.183 512.27 127.265 513.643 131.576C514.277 133.743 514.804 136.059 514.583 138.458C514.472 139.648 514.148 140.845 513.569 141.929C512.978 143.005 512.154 143.952 511.199 144.723C509.272 146.264 507.014 147.164 504.835 147.972C502.647 148.758 500.488 149.533 498.37 150.294C494.132 151.81 490.044 153.274 486.148 154.67C478.363 157.441 471.348 159.939 465.439 162.043C459.57 164.107 454.806 165.783 451.459 166.96C449.841 167.514 448.564 167.952 447.649 168.265C447.24 168.398 446.911 168.505 446.652 168.589C446.425 168.659 446.308 168.689 446.304 168.678C446.301 168.668 446.411 168.617 446.629 168.526C446.884 168.426 447.205 168.299 447.603 168.141C448.511 167.8 449.773 167.324 451.374 166.721C454.705 165.495 459.445 163.754 465.285 161.608C471.179 159.466 478.177 156.924 485.946 154.104C489.837 152.697 493.921 151.222 498.155 149.692C500.272 148.929 502.426 148.151 504.612 147.363C506.775 146.561 508.971 145.672 510.789 144.215C511.69 143.488 512.45 142.61 512.997 141.619C513.531 140.621 513.832 139.516 513.939 138.396C514.151 136.143 513.653 133.892 513.031 131.758C511.68 127.489 510.25 123.371 508.959 119.447C506.357 111.606 504.012 104.538 502.036 98.5857C500.1 92.6743 498.526 87.8753 497.421 84.5033C496.901 82.8718 496.492 81.5865 496.199 80.6635C496.073 80.251 495.974 79.9212 495.896 79.6591C495.829 79.4296 495.801 79.3117 495.812 79.308Z" fill="#263238"/>
<path d="M460.506 62.0152C460.473 62.0704 459.84 61.6779 458.607 61.1813C457.372 60.7098 455.502 60.1593 453.134 60.0841C450.78 59.9976 447.916 60.3612 445.056 61.6102C442.207 62.8441 439.401 65.0349 437.392 68.0156C435.343 70.9851 434.446 74.4211 434.445 77.5372C434.419 80.6672 435.083 83.4549 435.722 85.7422C436.383 88.032 437.058 89.849 437.504 91.1105C437.954 92.3721 438.197 93.0731 438.153 93.0906C438.113 93.1057 437.791 92.4373 437.267 91.2033C436.749 89.9669 436.005 88.1712 435.28 85.8751C434.578 83.5815 433.851 80.7588 433.843 77.5335C433.809 74.3258 434.727 70.7218 436.85 67.6482C438.934 64.5583 441.855 62.3049 444.818 61.0572C447.791 59.7969 450.745 59.4734 453.156 59.6213C455.584 59.758 457.481 60.3938 458.708 60.9468C459.314 61.244 459.778 61.4873 460.071 61.6917C460.369 61.8861 460.518 61.9952 460.506 62.0152Z" fill="#263238"/>
<path d="M461.075 111.084C461.068 111.068 461.285 110.96 461.711 110.768C462.133 110.571 462.781 110.319 463.646 110.072C464.505 109.803 465.606 109.607 466.905 109.53C468.2 109.466 469.726 109.601 471.304 110.186C474.508 111.312 477.461 114.588 478.911 118.928C479.608 121.12 479.669 123.666 478.968 126.127C478.221 128.579 476.849 130.93 474.868 132.906L474.951 132.574C476.616 137.145 478.429 142.119 480.318 147.295L480.432 147.609L480.115 147.716C479.205 148.021 478.23 148.348 477.248 148.677C475.135 149.384 473.052 150.081 471.008 150.766L470.7 150.869L470.598 150.559C468.88 145.36 466.998 140.458 465.631 135.773L465.902 135.986C463.335 135.814 461.027 134.737 459.19 133.333C457.346 131.914 455.932 130.154 454.979 128.302C454.043 126.443 453.571 124.471 453.65 122.654C453.697 120.838 454.115 119.194 454.702 117.808C455.872 115.013 457.615 113.255 458.907 112.295C460.222 111.334 461.075 111.084 461.075 111.084C461.105 111.141 460.279 111.455 459.024 112.447C457.793 113.438 456.131 115.199 455.037 117.945C453.945 120.625 453.471 124.477 455.425 128.072C456.361 129.849 457.742 131.538 459.526 132.891C461.303 134.23 463.52 135.24 465.933 135.388L466.145 135.4L466.204 135.601C467.587 140.253 469.479 145.135 471.212 150.356L470.801 150.15C472.844 149.465 474.927 148.766 477.04 148.057C478.022 147.729 478.996 147.401 479.906 147.097L479.703 147.517C477.829 142.336 476.025 137.357 474.371 132.783L474.304 132.599L474.453 132.451C476.329 130.596 477.696 128.297 478.415 125.964C479.1 123.61 479.06 121.191 478.41 119.08C477.04 114.867 474.222 111.665 471.166 110.54C469.657 109.951 468.18 109.79 466.911 109.824C465.64 109.869 464.552 110.031 463.695 110.267C461.974 110.71 461.098 111.139 461.075 111.084Z" fill="#263238"/>
<path d="M422.32 473.157L297.069 472.577C282.004 472.508 269.847 460.243 269.911 445.179L271.239 131.172C271.303 116.099 283.576 103.934 298.648 104.004L423.899 104.582C438.963 104.653 451.119 116.918 451.055 131.981L449.727 445.988C449.666 461.061 437.393 473.227 422.32 473.157Z" fill="#455A64"/>
<path d="M423.721 115.419L399.437 115.308C396.18 115.293 393.528 118.041 393.514 121.445L393.494 125.85C393.48 129.255 390.828 132.002 387.572 131.987L340.237 131.769C336.98 131.754 334.352 128.981 334.365 125.577L334.384 121.171C334.398 117.767 331.77 114.994 328.513 114.979L319.972 114.939L298.718 114.841C288.163 114.792 279.567 123.312 279.522 133.868L278.226 440.361C278.181 450.912 286.696 459.502 297.246 459.551L422.247 460.128C432.802 460.177 441.397 451.657 441.443 441.101L442.739 134.607C442.784 124.058 434.271 115.47 423.721 115.419Z" fill="white"/>
<path d="M406.683 386.41L313.732 385.981C312.77 385.976 311.994 384.929 312 383.641L312.103 359.324C312.108 358.036 312.893 356.996 313.855 357L406.806 357.43C407.769 357.435 408.546 358.482 408.539 359.77L408.437 384.086C408.432 385.374 407.647 386.415 406.683 386.41Z" fill="#830056"/>
<path d="M342.932 367.833C342.898 367.54 342.759 367.313 342.514 367.15C342.268 366.988 341.967 366.906 341.61 366.904C341.348 366.903 341.119 366.944 340.923 367.028C340.729 367.111 340.576 367.227 340.466 367.374C340.358 367.522 340.303 367.69 340.303 367.878C340.302 368.036 340.339 368.171 340.413 368.285C340.49 368.397 340.587 368.491 340.706 368.566C340.825 368.64 340.95 368.701 341.08 368.749C341.211 368.796 341.33 368.834 341.44 368.863L342.039 369.028C342.192 369.069 342.363 369.125 342.551 369.197C342.741 369.269 342.922 369.367 343.095 369.491C343.269 369.613 343.412 369.769 343.525 369.96C343.638 370.15 343.693 370.384 343.692 370.661C343.691 370.98 343.606 371.268 343.438 371.525C343.271 371.781 343.028 371.985 342.709 372.135C342.391 372.285 342.006 372.36 341.552 372.358C341.129 372.356 340.763 372.286 340.455 372.148C340.148 372.01 339.906 371.819 339.731 371.574C339.557 371.329 339.459 371.045 339.437 370.722L340.175 370.725C340.194 370.948 340.268 371.133 340.398 371.28C340.53 371.425 340.697 371.533 340.898 371.605C341.101 371.675 341.32 371.711 341.555 371.712C341.828 371.713 342.073 371.67 342.29 371.583C342.508 371.493 342.68 371.369 342.808 371.21C342.935 371.049 343 370.861 343 370.646C343.001 370.45 342.947 370.29 342.838 370.167C342.729 370.043 342.585 369.943 342.407 369.865C342.229 369.788 342.036 369.719 341.829 369.661L341.103 369.45C340.642 369.315 340.278 369.124 340.01 368.877C339.742 368.63 339.609 368.307 339.611 367.91C339.612 367.579 339.703 367.291 339.882 367.046C340.064 366.799 340.307 366.608 340.611 366.473C340.917 366.336 341.259 366.268 341.635 366.27C342.016 366.272 342.354 366.342 342.649 366.479C342.944 366.615 343.178 366.801 343.35 367.036C343.524 367.271 343.615 367.538 343.623 367.836L342.932 367.833ZM345.6 366.369L345.576 372.272L344.861 372.269L344.886 366.366L345.6 366.369ZM351.061 368.239C350.999 368.045 350.916 367.87 350.813 367.716C350.712 367.56 350.59 367.427 350.448 367.317C350.309 367.206 350.149 367.122 349.971 367.064C349.792 367.005 349.597 366.975 349.383 366.974C349.034 366.973 348.715 367.062 348.428 367.241C348.141 367.42 347.912 367.685 347.742 368.036C347.571 368.387 347.485 368.818 347.482 369.329C347.48 369.841 347.564 370.272 347.734 370.625C347.903 370.977 348.134 371.244 348.425 371.426C348.716 371.608 349.044 371.7 349.41 371.702C349.748 371.703 350.046 371.633 350.304 371.49C350.564 371.345 350.767 371.14 350.912 370.876C351.059 370.609 351.133 370.295 351.135 369.934L351.354 369.981L349.578 369.973L349.581 369.339L351.829 369.349L351.827 369.983C351.824 370.47 351.719 370.892 351.51 371.25C351.303 371.609 351.017 371.886 350.653 372.082C350.291 372.277 349.876 372.373 349.407 372.371C348.884 372.368 348.425 372.243 348.03 371.995C347.638 371.748 347.332 371.396 347.113 370.942C346.895 370.487 346.788 369.949 346.791 369.326C346.793 368.859 346.857 368.44 346.983 368.067C347.112 367.693 347.292 367.375 347.524 367.113C347.755 366.851 348.029 366.65 348.345 366.511C348.66 366.373 349.008 366.304 349.386 366.306C349.697 366.307 349.987 366.356 350.256 366.451C350.527 366.544 350.767 366.677 350.978 366.849C351.19 367.019 351.367 367.223 351.509 367.46C351.65 367.695 351.747 367.956 351.799 368.242L351.061 368.239ZM357.747 366.425L357.722 372.328L357.03 372.325L353.833 367.675L353.775 367.675L353.756 372.31L353.041 372.307L353.066 366.403L353.758 366.407L356.966 371.068L357.024 371.068L357.044 366.422L357.747 366.425ZM362.175 366.445L362.15 372.348L361.435 372.345L361.46 366.442L362.175 366.445ZM368.289 366.473L368.265 372.377L367.573 372.373L364.376 367.724L364.318 367.723L364.298 372.358L363.584 372.355L363.608 366.452L364.3 366.455L367.509 371.116L367.567 371.117L367.586 366.47L368.289 366.473Z" fill="#E8E8E3"/>
<path d="M332.47 205.491L300.221 205.342L300.194 211.26L332.443 211.408L332.47 205.491Z" fill="#830056"/>
<path opacity="0.1" d="M332.47 205.491L300.221 205.342L300.194 211.26L332.443 211.408L332.47 205.491Z" fill="black"/>
<path d="M427.04 241.804C427.035 241.779 427.309 241.819 427.776 241.631C428.216 241.46 428.911 240.925 428.991 239.943C428.987 237.943 428.981 235.036 428.973 231.304C428.973 229.424 428.972 227.339 428.971 225.057C428.972 224.485 428.972 223.903 428.972 223.307C428.988 222.698 428.987 222.132 428.621 221.665C428.291 221.199 427.727 220.902 427.138 220.9C426.494 220.898 425.84 220.897 425.174 220.896C419.838 220.886 413.767 220.873 407.061 220.861C380.196 220.76 343.123 220.624 302.175 220.472C301.634 220.468 301.107 220.733 300.793 221.17C300.444 221.614 300.459 222.137 300.467 222.809C300.462 224.082 300.456 225.35 300.451 226.615C300.439 229.145 300.428 231.656 300.418 234.149C300.413 235.397 300.407 236.639 300.401 237.876C300.421 238.469 300.343 239.179 300.453 239.639C300.577 240.142 300.959 240.569 301.433 240.769C301.68 240.87 301.91 240.905 302.209 240.902L303.127 240.907L304.956 240.916C306.174 240.922 307.387 240.929 308.594 240.935C318.251 240.986 327.567 241.036 336.443 241.083C354.186 241.191 370.167 241.288 383.596 241.37C397 241.475 407.856 241.562 415.385 241.621C419.119 241.665 422.027 241.698 424.028 241.722C424.998 241.741 425.744 241.755 426.275 241.765C426.78 241.78 427.04 241.804 427.04 241.804C427.04 241.804 426.78 241.825 426.274 241.833C425.743 241.838 424.997 241.845 424.026 241.855C422.025 241.86 419.117 241.868 415.383 241.877C407.852 241.867 396.998 241.851 383.592 241.834C370.163 241.791 354.182 241.741 336.438 241.686C327.563 241.651 318.247 241.614 308.59 241.577C307.383 241.572 306.17 241.567 304.953 241.562L303.122 241.554L302.204 241.55C301.89 241.557 301.502 241.508 301.181 241.367C300.525 241.092 300.002 240.505 299.826 239.806C299.727 239.451 299.75 239.093 299.748 238.803L299.752 237.876C299.757 236.639 299.762 235.396 299.767 234.149C299.777 231.655 299.787 229.143 299.797 226.615C299.802 225.351 299.807 224.082 299.812 222.809C299.822 222.483 299.794 222.198 299.845 221.808C299.9 221.441 300.042 221.086 300.264 220.788C300.694 220.182 301.434 219.812 302.176 219.821C343.123 220.047 380.196 220.253 407.06 220.401C413.769 220.449 419.838 220.493 425.174 220.532C425.84 220.537 426.496 220.542 427.138 220.549C427.84 220.555 428.508 220.916 428.892 221.468C429.322 222.008 429.318 222.748 429.293 223.31C429.288 223.905 429.284 224.489 429.279 225.059C429.258 227.341 429.241 229.427 429.224 231.305C429.178 235.042 429.143 237.953 429.118 239.954C429.009 241 428.257 241.537 427.795 241.693C427.309 241.867 427.04 241.804 427.04 241.804Z" fill="#E0E0E0"/>
<path d="M367.868 228.374L308.876 228.103L308.851 233.634L367.843 233.905L367.868 228.374Z" fill="#830056"/>
<path opacity="0.2" d="M367.868 228.374L308.876 228.103L308.851 233.634L367.843 233.905L367.868 228.374Z" fill="white"/>
<path d="M332.243 259.492L299.994 259.344L299.967 265.262L332.216 265.41L332.243 259.492Z" fill="#830056"/>
<path opacity="0.1" d="M332.243 259.492L299.994 259.344L299.967 265.262L332.216 265.41L332.243 259.492Z" fill="black"/>
<path d="M332.722 259.148L300.473 259L300.445 264.918L332.695 265.066L332.722 259.148Z" fill="#830056"/>
<path d="M426.693 295.452C426.692 295.429 426.958 295.453 427.437 295.313C427.894 295.163 428.626 294.786 429.026 293.891C429.24 293.449 429.262 292.914 429.243 292.301C429.24 291.691 429.238 291.027 429.235 290.308C429.233 288.865 429.23 287.203 429.227 285.337C429.225 283.465 429.225 281.386 429.224 279.111C429.224 278.543 429.225 277.961 429.225 277.367C429.252 276.767 429.18 276.213 428.859 275.713C428.557 275.221 428.068 274.831 427.496 274.656C426.936 274.479 426.265 274.575 425.6 274.548C420.284 274.536 414.234 274.525 407.549 274.513C380.777 274.414 343.833 274.277 303.028 274.125C301.893 274.098 300.847 275.022 300.738 276.143C300.7 277.335 300.718 278.653 300.706 279.897C300.695 282.417 300.684 284.921 300.674 287.405C300.669 288.648 300.662 289.884 300.657 291.119C300.679 291.734 300.59 292.377 300.735 292.87C300.877 293.389 301.208 293.852 301.651 294.155C302.111 294.465 302.609 294.58 303.211 294.557L305.035 294.565C306.249 294.572 307.457 294.578 308.66 294.584C318.284 294.636 327.567 294.684 336.412 294.731C354.094 294.84 370.019 294.936 383.402 295.018C396.759 295.123 407.576 295.209 415.08 295.268C418.802 295.311 421.7 295.347 423.693 295.369C424.66 295.388 425.404 295.4 425.932 295.412C426.435 295.429 426.693 295.452 426.693 295.452C426.693 295.452 426.435 295.473 425.931 295.481C425.402 295.486 424.658 295.493 423.691 295.503C421.698 295.508 418.8 295.516 415.078 295.526C407.575 295.515 396.758 295.501 383.398 295.483C370.015 295.442 354.09 295.392 336.408 295.337C327.563 295.301 318.28 295.265 308.657 295.227C307.453 295.222 306.245 295.216 305.031 295.211L303.207 295.204C302.594 295.236 301.84 295.087 301.286 294.692C300.718 294.302 300.294 293.71 300.111 293.043C299.925 292.341 300.035 291.729 300.008 291.118C300.013 289.885 300.018 288.646 300.023 287.405C300.033 284.92 300.043 282.415 300.053 279.896C300.068 278.621 300.043 277.409 300.089 276.068C300.229 274.624 301.575 273.437 303.03 273.474C343.835 273.7 380.778 273.904 407.55 274.052C414.234 274.101 420.283 274.145 425.601 274.184C426.257 274.218 426.92 274.113 427.599 274.321C428.253 274.525 428.806 274.974 429.146 275.537C429.506 276.088 429.584 276.791 429.548 277.37C429.543 277.964 429.538 278.544 429.533 279.114C429.512 281.388 429.495 283.467 429.479 285.338C429.459 287.206 429.442 288.867 429.427 290.31C429.418 291.028 429.41 291.694 429.402 292.302C429.413 292.901 429.377 293.493 429.143 293.946C428.701 294.876 427.926 295.244 427.453 295.377C426.958 295.498 426.693 295.452 426.693 295.452Z" fill="#E0E0E0"/>
<path d="M314.72 285.215C314.713 286.734 313.554 287.961 312.129 287.954C310.704 287.947 309.556 286.71 309.562 285.192C309.568 283.673 310.728 282.445 312.153 282.453C313.577 282.459 314.726 283.696 314.72 285.215Z" fill="#830056"/>
<path d="M322.711 285.253C322.705 286.772 321.545 287.998 320.121 287.992C318.696 287.986 317.547 286.749 317.554 285.229C317.56 283.711 318.72 282.484 320.145 282.491C321.569 282.496 322.718 283.733 322.711 285.253Z" fill="#830056"/>
<path d="M330.703 285.289C330.697 286.808 329.537 288.036 328.112 288.028C326.688 288.022 325.539 286.785 325.545 285.266C325.552 283.747 326.712 282.521 328.136 282.527C329.56 282.533 330.709 283.77 330.703 285.289Z" fill="#830056"/>
<path d="M338.694 285.326C338.687 286.844 337.527 288.072 336.104 288.065C334.68 288.058 333.53 286.822 333.537 285.302C333.543 283.783 334.703 282.557 336.128 282.563C337.551 282.571 338.701 283.807 338.694 285.326Z" fill="#830056"/>
<path d="M346.687 285.362C346.681 286.882 345.521 288.108 344.096 288.101C342.671 288.095 341.522 286.858 341.528 285.34C341.535 283.82 342.695 282.593 344.119 282.6C345.543 282.607 346.692 283.844 346.687 285.362Z" fill="#830056"/>
<path d="M354.677 285.4C354.671 286.92 353.511 288.146 352.086 288.139C350.662 288.132 349.513 286.896 349.52 285.377C349.526 283.857 350.686 282.632 352.109 282.637C353.535 282.643 354.684 283.881 354.677 285.4Z" fill="#830056"/>
<path d="M362.67 285.436C362.663 286.956 361.503 288.182 360.08 288.176C358.655 288.169 357.506 286.932 357.513 285.414C357.519 283.894 358.679 282.669 360.102 282.675C361.526 282.681 362.675 283.918 362.67 285.436Z" fill="#830056"/>
<path d="M370.661 285.473C370.655 286.992 369.495 288.219 368.071 288.212C366.647 288.205 365.497 286.97 365.504 285.45C365.511 283.931 366.671 282.705 368.094 282.711C369.518 282.717 370.667 283.954 370.661 285.473Z" fill="#830056"/>
<path d="M378.652 285.511C378.646 287.03 377.486 288.256 376.063 288.25C374.638 288.244 373.488 287.007 373.495 285.488C373.502 283.969 374.662 282.744 376.085 282.749C377.51 282.754 378.659 283.991 378.652 285.511Z" fill="#830056"/>
<g opacity="0.2">
<path d="M314.72 285.215C314.713 286.734 313.554 287.961 312.129 287.954C310.704 287.947 309.556 286.71 309.562 285.192C309.568 283.673 310.728 282.445 312.153 282.453C313.577 282.459 314.726 283.696 314.72 285.215Z" fill="white"/>
<path d="M322.711 285.253C322.705 286.772 321.545 287.998 320.121 287.992C318.696 287.986 317.547 286.749 317.554 285.229C317.56 283.711 318.72 282.484 320.145 282.491C321.569 282.496 322.718 283.733 322.711 285.253Z" fill="white"/>
<path d="M330.703 285.289C330.697 286.808 329.537 288.036 328.112 288.028C326.688 288.022 325.539 286.785 325.545 285.266C325.552 283.747 326.712 282.521 328.136 282.527C329.56 282.533 330.709 283.77 330.703 285.289Z" fill="white"/>
<path d="M338.694 285.326C338.687 286.844 337.527 288.072 336.104 288.065C334.68 288.058 333.53 286.822 333.537 285.302C333.543 283.783 334.703 282.557 336.128 282.563C337.551 282.571 338.701 283.807 338.694 285.326Z" fill="white"/>
<path d="M346.687 285.362C346.681 286.882 345.521 288.108 344.096 288.101C342.671 288.095 341.522 286.858 341.528 285.34C341.535 283.82 342.695 282.593 344.119 282.6C345.543 282.607 346.692 283.844 346.687 285.362Z" fill="white"/>
<path d="M354.677 285.4C354.671 286.92 353.511 288.146 352.086 288.139C350.662 288.132 349.513 286.896 349.52 285.377C349.526 283.857 350.686 282.632 352.109 282.637C353.535 282.643 354.684 283.881 354.677 285.4Z" fill="white"/>
<path d="M362.67 285.436C362.663 286.956 361.503 288.182 360.08 288.176C358.655 288.169 357.506 286.932 357.513 285.414C357.519 283.894 358.679 282.669 360.102 282.675C361.526 282.681 362.675 283.918 362.67 285.436Z" fill="white"/>
<path d="M370.661 285.473C370.655 286.992 369.495 288.219 368.071 288.212C366.647 288.205 365.497 286.97 365.504 285.45C365.511 283.931 366.671 282.705 368.094 282.711C369.518 282.717 370.667 283.954 370.661 285.473Z" fill="white"/>
<path d="M378.652 285.511C378.646 287.03 377.486 288.256 376.063 288.25C374.638 288.244 373.488 287.007 373.495 285.488C373.502 283.969 374.662 282.744 376.085 282.749C377.51 282.754 378.659 283.991 378.652 285.511Z" fill="white"/>
</g>
<path d="M366.582 161.146C368.27 160.438 369.47 158.699 369.48 156.648C369.491 153.962 367.458 151.775 364.939 151.763C362.421 151.751 360.369 153.92 360.359 156.606C360.351 158.675 361.559 160.437 363.265 161.146C356.246 162.204 356.565 169.832 356.565 169.832L373.16 169.908C373.16 169.908 373.539 162.197 366.582 161.146Z" fill="#830056"/>
<path opacity="0.1" d="M366.582 161.146C368.27 160.438 369.47 158.699 369.48 156.648C369.491 153.962 367.458 151.775 364.939 151.763C362.421 151.751 360.369 153.92 360.359 156.606C360.351 158.675 361.559 160.437 363.265 161.146C356.246 162.204 356.565 169.832 356.565 169.832L373.16 169.908C373.16 169.908 373.539 162.197 366.582 161.146Z" fill="black"/>
<path d="M393.558 174.898L334.378 174.625L334.345 181.702L393.526 181.974L393.558 174.898Z" fill="#830056"/>
<path opacity="0.2" d="M393.558 174.898L334.378 174.625L334.345 181.702L393.526 181.974L393.558 174.898Z" fill="white"/>
<path d="M176.001 211.521C176.001 211.534 175.803 211.555 175.419 211.586C175.004 211.616 174.439 211.658 173.713 211.71C172.959 211.723 172.042 211.887 170.961 212.078C170.423 212.187 169.829 212.231 169.222 212.41C168.613 212.579 167.964 212.759 167.278 212.949C164.572 213.803 161.313 215.16 158.031 217.536C154.758 219.894 151.484 223.266 148.932 227.665C147.591 229.827 146.617 232.324 145.743 234.948C145.032 237.619 144.403 240.457 144.355 243.448C144.222 244.939 144.373 246.454 144.436 247.994C144.476 248.764 144.641 249.526 144.74 250.302C144.846 251.078 144.96 251.858 145.18 252.625C145.815 255.742 147.085 258.798 148.692 261.726C151.903 267.605 157.3 272.67 163.965 275.605C167.3 277.076 170.987 277.87 174.736 278.024C178.489 278.263 182.334 277.659 185.978 276.407L187.08 276.002L187.226 275.949L187.357 276.015C192.753 278.755 198.045 281.442 203.173 284.045L202.703 284.446C201.014 279.204 199.377 274.123 197.806 269.246L197.746 269.058L197.885 268.919C201.871 264.928 204.649 260.078 206.189 255.114C207.733 250.134 207.996 245.063 207.394 240.416C206.792 235.758 205.27 231.524 203.239 227.96C201.21 224.386 198.687 221.483 196.098 219.216C193.478 216.965 190.762 215.44 188.328 214.272C185.835 213.229 183.613 212.561 181.766 212.204C180.843 212.046 180.022 211.907 179.306 211.786C178.596 211.735 177.991 211.694 177.491 211.659C177.025 211.623 176.657 211.595 176.379 211.574C176.129 211.547 176.001 211.531 176.001 211.521C176.001 211.512 176.129 211.51 176.38 211.513C176.658 211.521 177.027 211.532 177.496 211.545C177.999 211.565 178.608 211.59 179.323 211.619C180.045 211.727 180.874 211.85 181.806 211.989C183.672 212.315 185.923 212.956 188.455 213.981C190.925 215.131 193.689 216.649 196.36 218.906C199.001 221.178 201.578 224.104 203.658 227.716C205.739 231.319 207.309 235.612 207.941 240.34C208.573 245.058 208.324 250.214 206.769 255.287C205.218 260.344 202.402 265.294 198.344 269.372L198.423 269.044C200 273.918 201.646 278.997 203.342 284.237L203.591 285.003L202.872 284.639C197.742 282.038 192.45 279.356 187.052 276.619L187.329 276.632L186.203 277.046C182.477 278.328 178.544 278.941 174.708 278.698C170.877 278.539 167.108 277.722 163.703 276.215C156.895 273.209 151.404 268.027 148.147 262.031C146.517 259.044 145.237 255.928 144.599 252.754C144.378 251.974 144.265 251.18 144.16 250.39C144.062 249.601 143.898 248.824 143.859 248.041C143.8 246.476 143.653 244.935 143.795 243.421C143.856 240.383 144.507 237.501 145.244 234.794C146.145 232.133 147.148 229.606 148.521 227.42C151.136 222.975 154.479 219.583 157.813 217.227C161.155 214.852 164.464 213.517 167.206 212.695C167.899 212.514 168.556 212.342 169.173 212.182C169.786 212.011 170.387 211.976 170.93 211.878C172.022 211.707 172.945 211.564 173.704 211.574C174.434 211.549 175.003 211.531 175.421 211.516C175.804 211.508 176.001 211.51 176.001 211.521Z" fill="#830056"/>
<path d="M183.153 240.801H180.836L175.778 233.752V229.126C175.778 229.126 172.197 228.905 172.617 234.963C173.038 241.021 172.583 239.479 172.583 239.479C172.583 239.479 164.977 239.508 164.345 240.169C163.885 240.649 163.678 248.204 163.598 252.301C163.558 254.364 164.823 256.283 166.742 256.77C167.014 256.841 167.29 256.881 167.561 256.881C169.458 256.881 179.15 255.338 179.15 255.338H183.153V240.801Z" fill="#830056"/>
<path d="M189.787 239.531L188.362 255.381H184.393V239.85L189.787 239.531Z" fill="#830056"/>
<path d="M237.052 562.22V551.49L217.827 551.361L217.668 567.569L218.859 567.658C224.162 568.001 245.847 568.5 249.399 567.4C253.363 566.175 237.052 562.22 237.052 562.22Z" fill="#830056"/>
<path d="M249.855 566.394C249.855 566.576 242.663 566.721 233.795 566.721C224.923 566.721 217.733 566.576 217.733 566.394C217.733 566.214 224.923 566.068 233.795 566.068C242.663 566.069 249.855 566.215 249.855 566.394Z" fill="#263238"/>
<path d="M237.39 564.409C237.232 564.327 237.367 563.76 237.78 563.2C238.191 562.64 238.694 562.341 238.819 562.468C238.949 562.597 238.685 563.069 238.305 563.588C237.925 564.103 237.552 564.496 237.39 564.409Z" fill="#263238"/>
<path d="M238.616 565.117C238.449 565.054 238.536 564.418 238.913 563.75C239.29 563.079 239.79 562.677 239.929 562.787C240.073 562.899 239.831 563.446 239.481 564.069C239.132 564.691 238.788 565.183 238.616 565.117Z" fill="#263238"/>
<path d="M223.525 566.347C223.45 566.399 223.164 566.117 222.748 565.646C222.329 565.178 221.781 564.516 221.061 563.956C220.348 563.4 219.562 563.12 218.981 563.047C218.397 562.968 218.013 563.06 217.98 562.966C217.946 562.896 218.304 562.627 218.997 562.586C219.679 562.539 220.644 562.799 221.46 563.439C222.271 564.072 222.791 564.827 223.12 565.373C223.449 565.925 223.597 566.296 223.525 566.347Z" fill="#263238"/>
<path d="M237.448 562.393C237.542 562.544 237.213 562.917 236.663 563.117C236.115 563.321 235.621 563.249 235.596 563.074C235.567 562.893 235.957 562.684 236.438 562.506C236.919 562.329 237.353 562.237 237.448 562.393Z" fill="#263238"/>
<path d="M237.147 561.356C237.165 561.536 236.652 561.691 236.004 561.698C235.354 561.707 234.838 561.568 234.851 561.387C234.864 561.207 235.376 561.054 235.995 561.045C236.613 561.037 237.13 561.176 237.147 561.356Z" fill="#263238"/>
<path d="M284.392 562.22L284.394 551.49L265.169 551.361L265.009 567.405L266.201 567.493C271.504 567.835 293.188 568.5 296.742 567.4C300.704 566.175 284.392 562.22 284.392 562.22Z" fill="#830056"/>
<path d="M297.196 566.419C297.196 566.599 290.006 566.747 281.136 566.747C272.264 566.747 265.075 566.6 265.075 566.419C265.075 566.239 272.264 566.092 281.136 566.092C290.004 566.092 297.196 566.239 297.196 566.419Z" fill="#263238"/>
<path d="M284.731 564.409C284.573 564.327 284.709 563.76 285.122 563.2C285.534 562.64 286.037 562.341 286.162 562.468C286.291 562.597 286.028 563.069 285.648 563.588C285.267 564.103 284.892 564.496 284.731 564.409Z" fill="#263238"/>
<path d="M285.958 565.117C285.791 565.054 285.877 564.418 286.255 563.75C286.631 563.079 287.131 562.677 287.27 562.787C287.415 562.899 287.173 563.446 286.824 564.069C286.473 564.691 286.128 565.183 285.958 565.117Z" fill="#263238"/>
<path d="M270.865 566.347C270.79 566.399 270.504 566.117 270.088 565.646C269.67 565.178 269.121 564.516 268.401 563.956C267.688 563.4 266.903 563.12 266.321 563.047C265.736 562.968 265.353 563.06 265.32 562.966C265.286 562.896 265.644 562.627 266.336 562.586C267.018 562.539 267.984 562.799 268.799 563.439C269.611 564.072 270.128 564.827 270.459 565.373C270.79 565.925 270.938 566.296 270.865 566.347Z" fill="#263238"/>
<path d="M284.79 562.393C284.884 562.544 284.554 562.917 284.006 563.117C283.457 563.321 282.964 563.249 282.938 563.074C282.909 562.893 283.299 562.684 283.779 562.506C284.261 562.329 284.694 562.237 284.79 562.393Z" fill="#263238"/>
<path d="M284.488 561.356C284.505 561.536 283.992 561.691 283.344 561.698C282.694 561.707 282.179 561.568 282.192 561.387C282.204 561.207 282.717 561.054 283.337 561.045C283.955 561.037 284.47 561.176 284.488 561.356Z" fill="#263238"/>
<path d="M355.215 243.834C354.713 243.317 353.479 243.561 353.479 243.561C353.479 243.561 353.695 242.095 353.467 241.386C353.24 240.678 351.659 240.814 351.659 240.814C351.659 240.814 351.562 240.132 351.7 239.031C351.735 238.755 351.582 238.552 351.332 238.401C350.584 237.948 348.97 237.969 348.97 237.969C348.002 237.277 351.919 231.799 353.371 230.046C354.807 228.315 354.565 226.926 353.27 226.929C352.387 226.93 347.813 232.196 346.418 233.964C345.023 235.731 341.281 240.648 341.155 236.724C341.027 232.8 339.451 229.832 338.465 229.327C337.479 228.821 336.416 230.008 336.961 231.097C337.403 231.978 337.681 233.674 337.839 234.957C337.97 236.015 337.926 237.089 337.695 238.128C337.04 241.068 336.337 242.976 336.007 243.793L335.91 243.739C335.91 243.739 308.539 269.984 306.567 271.857C304.791 273.543 269.225 269.863 262.1 269.107C260.152 268.889 257.268 268.498 254.769 268.608C251.678 268.744 251.129 269.182 248.035 269.224C238.562 269.351 230.668 270.272 224.793 271.267C217.691 272.468 211.867 277.524 209.669 284.385C202.477 306.828 186.208 359.961 183.308 389.811C181.025 394.105 178.473 399.119 177.436 401.941C175.421 407.427 175.91 407.614 176.589 407.741C178.413 408.078 180.499 398.225 181.278 400.603C182.058 402.982 177.326 412.357 179.245 412.631C181.748 412.989 183.744 402.634 183.977 401.77C184.204 400.931 185.467 401.215 185.214 401.984C184.851 403.088 181.322 414.788 183.777 415.163C185.138 415.371 185.285 412.892 185.285 412.892C185.285 412.892 187.78 401.703 188.933 401.918C190.104 402.138 188.86 408.756 188.282 410.958C187.711 413.134 188.515 414.29 189.689 413.744C190.489 413.37 192.416 406.666 192.935 404.475C193.456 402.285 194.774 396.249 196.544 399.753C198.315 403.256 200.995 405.283 202.102 405.327C203.208 405.369 203.672 403.846 202.718 403.087C201.947 402.475 200.979 401.054 200.294 399.957C199.73 399.053 199.316 398.061 199.087 397.02C198.206 393.007 198.213 390.674 198.213 390.674L198.009 389.385C200.817 375.474 208.911 334.663 220.538 308.589L225.326 318.442L227.404 325.735L214.645 357.26L269.085 356.542L260.969 325.269L270.829 292.659H270.828C281.499 292.897 308.908 293.294 313.514 291.235C319.256 288.67 348.975 251.208 348.975 251.208H348.973C350.981 249.609 353.023 247.89 354.529 246.389C354.531 246.386 356.303 244.953 355.215 243.834Z" fill="#FFBE9D"/>
<path d="M212.276 334.049C213.852 328.658 221.968 302.001 221.968 302.001C221.968 302.001 225.951 323.734 224.904 326.351C223.698 329.367 221.48 332.818 221.48 332.818C212.276 346.836 213.484 353.843 213.484 353.843L269.086 352.147C269.222 344.371 264.618 326.292 263.656 323.412C262.693 320.531 265.886 311.077 265.886 311.077C265.886 311.077 272.17 304.696 271.926 301.412C271.436 294.795 270.83 292.659 270.83 292.659L304.663 293.904L303.6 270.947L254.966 266.08C253.283 270.869 237.968 268.523 237.968 268.523C221.434 269.066 220.433 272.107 213.538 277.445C206.643 282.783 195.288 328.632 195.288 328.632L212.276 334.049Z" fill="#830056"/>
<path d="M245.16 328.627C245.159 328.714 244.04 328.788 242.229 328.775C240.42 328.764 237.918 328.651 235.169 328.376C232.419 328.098 229.946 327.711 228.169 327.361C226.394 327.012 225.312 326.717 225.328 326.632C225.345 326.541 226.455 326.675 228.243 326.905C230.032 327.137 232.499 327.451 235.234 327.726C237.968 328 240.449 328.185 242.247 328.314C244.046 328.444 245.161 328.533 245.16 328.627Z" fill="#263238"/>
<path d="M248.966 323.898C248.99 323.978 247.842 324.414 245.93 324.933C244.019 325.451 241.334 326.024 238.329 326.382C235.324 326.737 232.579 326.811 230.598 326.754C228.617 326.697 227.401 326.54 227.406 326.459C227.41 326.362 228.631 326.354 230.597 326.292C232.563 326.231 235.275 326.086 238.252 325.734C241.226 325.379 243.897 324.884 245.823 324.484C247.749 324.083 248.939 323.804 248.966 323.898Z" fill="#263238"/>
<path d="M267.669 302.805C267.756 302.824 267.613 303.907 267.289 305.641C266.966 307.376 266.458 309.758 265.817 312.371C265.175 314.986 264.524 317.335 264.009 319.021C263.493 320.709 263.12 321.736 263.033 321.713C262.945 321.687 263.162 320.618 263.562 318.902C264.036 316.945 264.582 314.698 265.182 312.217C265.797 309.741 266.354 307.497 266.839 305.542C267.277 303.834 267.58 302.786 267.669 302.805Z" fill="#263238"/>
<path d="M212.859 330.855C212.812 331.03 208.977 330.136 204.294 328.858C199.611 327.579 195.854 326.404 195.901 326.228C195.949 326.054 199.782 326.949 204.466 328.227C209.149 329.505 212.907 330.682 212.859 330.855Z" fill="#263238"/>
<path d="M271.444 292.364C271.444 292.394 270.928 292.448 270.004 292.356C269.085 292.262 267.739 292.048 266.181 291.445C264.621 290.86 262.847 289.884 261.191 288.406C259.534 286.935 258.053 284.911 257.109 282.53C256.15 280.15 255.835 277.67 255.985 275.461C256.131 273.257 256.715 271.264 257.702 269.868C258.679 268.454 259.974 267.769 260.876 267.532C261.333 267.411 261.701 267.382 261.947 267.388C262.194 267.394 262.321 267.422 262.321 267.442C262.323 267.503 261.8 267.475 260.953 267.774C260.12 268.073 258.949 268.776 258.086 270.127C256.379 272.81 255.903 277.71 257.717 282.289C258.626 284.579 260.025 286.523 261.597 287.962C263.168 289.408 264.859 290.395 266.354 291.017C269.366 292.266 271.466 292.225 271.444 292.364Z" fill="#263238"/>
<path d="M300.673 293.445C300.494 293.445 300.357 288.271 300.37 281.889C300.382 275.505 300.539 270.334 300.719 270.334C300.899 270.335 301.035 275.508 301.022 281.891C301.011 288.272 300.854 293.446 300.673 293.445Z" fill="#263238"/>
<path d="M254.669 267.478C254.805 264.679 255.099 261.518 255.099 261.518C255.099 261.518 262.018 260.756 262.438 253.607C262.859 246.457 262.438 229.974 262.438 229.974L249.834 223.556L235.97 234.497L238.071 270.237L250.828 271.048C252.839 271.176 254.566 269.574 254.669 267.478Z" fill="#FFBE9D"/>
<path d="M255.915 247.952C255.935 247.957 255.937 248.087 255.806 248.26C255.678 248.428 255.399 248.618 255.01 248.611C254.206 248.572 253.434 247.684 253.149 246.601C253.006 246.05 253.007 245.492 253.115 245.012C253.2 244.539 253.474 244.064 253.868 243.935C254.056 243.864 254.251 243.872 254.4 243.947C254.547 244.021 254.637 244.133 254.684 244.235C254.778 244.449 254.705 244.578 254.686 244.568C254.658 244.567 254.665 244.449 254.56 244.314C254.461 244.178 254.225 244.054 253.964 244.189C253.698 244.309 253.516 244.649 253.449 245.084C253.37 245.516 253.38 246.011 253.506 246.501C253.757 247.472 254.431 248.267 255.029 248.339C255.325 248.376 255.57 248.262 255.703 248.154C255.841 248.041 255.889 247.94 255.915 247.952Z" fill="#EB996E"/>
<path d="M266.736 226.115C265.773 222.825 262.274 221.189 259.087 220.287C254.237 218.912 248.984 218.304 244.247 220.048C239.509 221.793 233.811 224.861 233.812 230.095C231.016 229.865 229.418 232.315 228.308 235.351C227.652 237.144 227.221 239.14 227.119 241.118L227.073 241.103C226.713 247.954 224.805 257.392 220.363 262.46C217.91 265.257 214.379 267.19 212.949 270.675C211.707 273.703 212.35 277.282 211.175 280.339C210.138 283.038 207.842 284.954 206.195 287.302C202.61 292.415 202.365 299.64 205 305.347C207.635 311.054 212.855 315.229 218.65 317.143C224.445 319.057 230.757 318.846 236.655 317.311C241.009 316.177 245.245 314.301 248.715 311.336C252.184 308.37 254.847 304.248 255.641 299.646C256.523 294.523 255.09 289.322 254.035 284.234C250.7 268.139 251.653 267.303 255.862 252.373C255.958 252.109 256.017 251.835 256.089 251.564C256.145 251.366 256.199 251.176 256.255 250.973L256.246 250.971C256.364 250.386 256.441 249.792 256.443 249.185C255.224 249.665 253.752 249.345 252.816 248.4C251.882 247.454 251.534 245.93 251.959 244.647C252.448 243.171 253.802 242.185 255.193 241.599C256.584 241.014 258.08 240.724 259.445 240.076C262.341 238.698 264.348 235.839 265.714 232.843C266.673 230.742 267.387 228.337 266.736 226.115Z" fill="#263238"/>
<path d="M256.411 248.257C256.454 248.238 256.698 248.705 257.07 249.496C257.443 250.287 257.942 251.404 258.497 252.689L258.601 252.932L258.335 252.954C257.918 252.991 257.495 253.027 257.059 253.065C256.184 253.121 255.454 253.226 254.606 253.218C254.472 253.194 254.323 253.071 254.283 252.933C254.237 252.798 254.25 252.684 254.264 252.584C254.3 252.388 254.344 252.242 254.382 252.075L254.604 251.188C254.881 250.104 255.079 249.439 255.132 249.452C255.184 249.465 255.081 250.15 254.873 251.248L254.699 252.144C254.635 252.448 254.525 252.9 254.688 252.865C255.312 252.839 256.201 252.735 257.026 252.673C257.463 252.638 257.885 252.606 258.303 252.572L258.142 252.838C257.606 251.547 257.15 250.41 256.839 249.592C256.532 248.776 256.367 248.276 256.411 248.257Z" fill="#830056"/>
<path d="M213.484 353.842L269.086 352.146L293.269 446.622L288.815 554.991H259.385L263.032 448.929L241.523 383.162L244.837 559.193L215.125 559.632L211.995 394.169C211.865 389.571 210.351 379.195 210.914 374.633L213.484 353.842Z" fill="#263238"/>
<path d="M248.929 384.498C248.918 384.584 247.874 384.533 246.201 384.336C244.529 384.139 242.228 383.785 239.707 383.28C237.186 382.772 234.928 382.208 233.309 381.741C231.69 381.275 230.708 380.922 230.731 380.836C230.781 380.654 234.818 381.633 239.836 382.639C244.851 383.654 248.953 384.311 248.929 384.498Z" fill="#455A64"/>
<path d="M288.548 549.047C288.548 549.229 281.885 549.375 273.668 549.375C265.448 549.375 258.787 549.229 258.787 549.047C258.787 548.868 265.448 548.721 273.668 548.721C281.885 548.723 288.548 548.868 288.548 549.047Z" fill="#455A64"/>
<path d="M244.572 554.62C244.572 554.802 238.109 554.948 230.136 554.948C222.161 554.948 215.698 554.802 215.698 554.62C215.698 554.44 222.161 554.294 230.136 554.294C238.109 554.294 244.572 554.44 244.572 554.62Z" fill="#455A64"/>
<path d="M240.744 554.169C240.564 554.171 239.783 515.706 238.999 468.266C238.215 420.808 237.726 382.346 237.907 382.343C238.087 382.341 238.868 420.797 239.652 468.255C240.436 515.696 240.925 554.165 240.744 554.169Z" fill="#455A64"/>
<path d="M284.596 549.047C284.584 549.047 284.581 548.873 284.582 548.536C284.588 548.166 284.598 547.669 284.609 547.034C284.648 545.678 284.705 543.739 284.776 541.26C284.952 536.213 285.203 528.967 285.514 520.029C286.199 502.075 287.146 477.327 288.192 449.993C288.202 449.741 288.212 449.489 288.221 449.255L288.231 449.348C281.641 422.96 275.685 399.109 271.366 381.817C269.247 373.203 267.53 366.223 266.334 361.36C265.759 358.97 265.312 357.1 264.998 355.793C264.858 355.18 264.749 354.7 264.667 354.343C264.596 354.014 264.564 353.846 264.575 353.844C264.586 353.841 264.638 354.005 264.731 354.328C264.828 354.68 264.958 355.156 265.125 355.763C265.467 357.064 265.955 358.923 266.579 361.301C267.823 366.15 269.608 373.112 271.811 381.706C276.178 398.986 282.2 422.821 288.863 449.19L288.874 449.235L288.873 449.283C288.864 449.515 288.853 449.767 288.844 450.02C287.724 477.351 286.71 502.094 285.974 520.047C285.576 528.982 285.254 536.223 285.03 541.27C284.904 543.748 284.808 545.684 284.74 547.04C284.701 547.674 284.671 548.171 284.648 548.54C284.624 548.877 284.607 549.049 284.596 549.047Z" fill="#455A64"/>
<path d="M275.003 447.051C275.034 447.229 272.123 447.876 268.501 448.498C265.798 448.963 263.463 449.282 262.443 449.339L262.442 449.085C262.781 449.178 262.963 449.25 262.955 449.296C262.949 449.341 262.752 449.354 262.402 449.339L261.642 449.307L262.401 449.085C263.381 448.798 265.689 448.32 268.392 447.856C272.011 447.233 274.972 446.872 275.003 447.051Z" fill="#455A64"/>
<path d="M274.441 450.656C274.416 450.838 271.804 450.636 268.587 450.389C265.371 450.136 262.758 449.93 262.762 449.746C262.766 449.568 265.401 449.483 268.638 449.737C271.874 449.987 274.465 450.481 274.441 450.656Z" fill="#455A64"/>
<path opacity="0.2" d="M213.236 355.839C214.581 357.731 216.498 358.394 218.726 358.759C220.953 359.124 223.227 358.881 225.469 358.631C239.821 357.039 255.03 355.57 269.086 352.146C250.892 353.165 231.678 352.822 213.483 353.841C213.483 353.841 213.328 355.093 213.291 355.394" fill="black"/>
<g opacity="0.2">
<path d="M231.991 381.484L242.241 421.278L241.524 383.161L231.991 381.484Z" fill="black"/>
</g>
</svg>
